# xmcd CD database file
#
# Track frame offsets:
#	150
#	23732
#	42655
#	73960
#	96385
#	114715
#	134905
#	151915
#
# Disc length: 2233 seconds
#
# Revision: 0
# Processed by: cddbd v1.5.2PL0 Copyright (c) Steve Scherf et al.
# Submitted via: CDex 1.70beta2
#
DISCID=7908b708
DTITLE=Johnny Guitar Watson - Funk Beyond The Call Of Duty
DYEAR=1977
DGENRE=Blues
TTITLE0=Funk Beyond The Call Of Duty
TTITLE1=It's About The Doller Bill  
TTITLE2=Give Me My Love
TTITLE3=It's A Damn Shame 
TTITLE4=I'm Gonna Get You Baby
TTITLE5=Barn Door
TTITLE6=Love That Will Not Die
TTITLE7=It's A Damn Shame(7"Verson)
EXTD=YEAR: 1977
EXTT0=
EXTT1=
EXTT2=
EXTT3=
EXTT4=
EXTT5=
EXTT6=
EXTT7=
PLAYORDER=
